<svg width="262" height="43" viewBox="0 0 262 43" fill="none" xmlns="http://www.w3.org/2000/svg">
<path d="M2.09375 36V6.90909H14.7074C16.9233 6.90909 18.7841 7.20739 20.2898 7.80398C21.8049 8.40057 22.946 9.24337 23.7131 10.3324C24.4896 11.4214 24.8778 12.7045 24.8778 14.1818C24.8778 15.2519 24.6411 16.2273 24.1676 17.108C23.7036 17.9886 23.0502 18.7273 22.2074 19.3239C21.3646 19.911 20.3797 20.3182 19.2528 20.5455V20.8295C20.5028 20.8769 21.6392 21.1941 22.6619 21.7812C23.6847 22.3589 24.4991 23.1591 25.1051 24.1818C25.7112 25.1951 26.0142 26.3883 26.0142 27.7614C26.0142 29.3523 25.5975 30.768 24.7642 32.0085C23.9403 33.2491 22.7661 34.2244 21.2415 34.9347C19.7169 35.6449 17.8987 36 15.7869 36H2.09375ZM9.99148 29.6932H13.6847C15.0104 29.6932 16.0047 29.447 16.6676 28.9545C17.3305 28.4527 17.6619 27.714 17.6619 26.7386C17.6619 26.0568 17.5057 25.4792 17.1932 25.0057C16.8807 24.5322 16.4356 24.1723 15.858 23.9261C15.2898 23.6799 14.6032 23.5568 13.7983 23.5568H9.99148V29.6932ZM9.99148 18.6705H13.2301C13.9214 18.6705 14.5322 18.5616 15.0625 18.3438C15.5928 18.1259 16.0047 17.8134 16.2983 17.4062C16.6013 16.9896 16.7528 16.483 16.7528 15.8864C16.7528 14.9867 16.4309 14.3002 15.7869 13.8267C15.143 13.3438 14.3286 13.1023 13.3438 13.1023H9.99148V18.6705ZM56.9943 21.4545C56.9943 24.6932 56.3646 27.4252 55.1051 29.6506C53.8456 31.8665 52.1458 33.5473 50.0057 34.6932C47.8655 35.8295 45.4792 36.3977 42.8466 36.3977C40.1951 36.3977 37.7992 35.8248 35.6591 34.679C33.5284 33.5237 31.8333 31.8381 30.5739 29.6222C29.3239 27.3968 28.6989 24.6742 28.6989 21.4545C28.6989 18.2159 29.3239 15.4886 30.5739 13.2727C31.8333 11.0473 33.5284 9.36648 35.6591 8.23011C37.7992 7.08428 40.1951 6.51136 42.8466 6.51136C45.4792 6.51136 47.8655 7.08428 50.0057 8.23011C52.1458 9.36648 53.8456 11.0473 55.1051 13.2727C56.3646 15.4886 56.9943 18.2159 56.9943 21.4545ZM48.8693 21.4545C48.8693 19.7121 48.6373 18.2443 48.1733 17.0511C47.7188 15.8485 47.0417 14.9394 46.142 14.3239C45.2519 13.6989 44.1534 13.3864 42.8466 13.3864C41.5398 13.3864 40.4366 13.6989 39.5369 14.3239C38.6468 14.9394 37.9697 15.8485 37.5057 17.0511C37.0511 18.2443 36.8239 19.7121 36.8239 21.4545C36.8239 23.197 37.0511 24.6695 37.5057 25.8722C37.9697 27.0653 38.6468 27.9744 39.5369 28.5994C40.4366 29.215 41.5398 29.5227 42.8466 29.5227C44.1534 29.5227 45.2519 29.215 46.142 28.5994C47.0417 27.9744 47.7188 27.0653 48.1733 25.8722C48.6373 24.6695 48.8693 23.197 48.8693 21.4545ZM72.6371 6.90909H80.4212V26.8523C80.4117 28.7462 79.9335 30.4129 78.9865 31.8523C78.049 33.2822 76.7517 34.3996 75.0945 35.2045C73.4467 36 71.5481 36.3977 69.3984 36.3977C67.5329 36.3977 65.8284 36.0758 64.2848 35.4318C62.7412 34.7784 61.5102 33.7557 60.5916 32.3636C59.6731 30.9621 59.2185 29.1439 59.228 26.9091H67.1257C67.1541 27.6383 67.2772 28.2538 67.495 28.7557C67.7223 29.2576 68.0348 29.6364 68.4325 29.892C68.8397 30.1383 69.3321 30.2614 69.9098 30.2614C70.4969 30.2614 70.9893 30.1335 71.3871 29.8778C71.7943 29.6222 72.102 29.2434 72.3104 28.7415C72.5187 28.2301 72.6276 27.6004 72.6371 26.8523V6.90909ZM108.07 36V6.90909H115.968V18.2727H126.423V6.90909H134.32V36H126.423V24.6364H115.968V36H108.07ZM138.07 36V6.90909H159.036V13.2727H145.968V18.2727H157.957V24.6364H145.968V29.6364H158.979V36H138.07ZM162.953 36V6.90909H170.851V29.6364H182.612V36H162.953ZM185.805 36V6.90909H198.362C200.521 6.90909 202.41 7.33523 204.029 8.1875C205.648 9.03977 206.908 10.2377 207.808 11.7812C208.707 13.3248 209.157 15.1288 209.157 17.1932C209.157 19.2765 208.693 21.0805 207.765 22.6051C206.846 24.1297 205.554 25.304 203.887 26.1278C202.23 26.9517 200.293 27.3636 198.077 27.3636H190.577V21.2273H196.487C197.415 21.2273 198.205 21.0663 198.859 20.7443C199.522 20.4129 200.028 19.9441 200.379 19.3381C200.738 18.732 200.918 18.017 200.918 17.1932C200.918 16.3598 200.738 15.6496 200.379 15.0625C200.028 14.4659 199.522 14.0114 198.859 13.6989C198.205 13.3769 197.415 13.2159 196.487 13.2159H193.702V36H185.805ZM212.055 36V6.90909H233.021V13.2727H219.952V18.2727H231.941V24.6364H219.952V29.6364H232.964V36H212.055ZM236.938 36V6.90909H249.494C251.653 6.90909 253.543 7.30208 255.162 8.08807C256.781 8.87405 258.041 10.0057 258.94 11.483C259.84 12.9602 260.29 14.7311 260.29 16.7955C260.29 18.8788 259.826 20.6354 258.898 22.0653C257.979 23.4953 256.687 24.5748 255.02 25.304C253.363 26.0331 251.426 26.3977 249.21 26.3977H241.71V20.2614H247.619C248.547 20.2614 249.338 20.1477 249.991 19.9205C250.654 19.6837 251.161 19.3097 251.511 18.7983C251.871 18.2869 252.051 17.6193 252.051 16.7955C252.051 15.9621 251.871 15.285 251.511 14.7642C251.161 14.2339 250.654 13.8456 249.991 13.5994C249.338 13.3437 248.547 13.2159 247.619 13.2159H244.835V36H236.938ZM253.983 22.6477L261.256 36H252.676L245.574 22.6477H253.983Z" fill="#5C76D1"/>
</svg>
